HIERARCHY
ROOT Hips
{
	OFFSET 0.000000 71.427986 0.000000
	CHANNELS 6 Xposition Yposition Zposition Xrotation Yrotation Zrotation
	JOINT Pelvis
	{
		OFFSET 0.000000 0.000000 0.000000
		CHANNELS 3 Xrotation Yrotation Zrotation
		JOINT LeftUpLeg
		{
			OFFSET 6.797100 -2.508499 -1.318700
			CHANNELS 3 Xrotation Yrotation Zrotation
			JOINT LeftLeg
			{
				OFFSET 0.069008 -29.241863 0.690200
				CHANNELS 3 Xrotation Yrotation Zrotation
				JOINT LeftFoot
				{
					OFFSET -0.069008 -29.568123 -0.266800
					CHANNELS 3 Xrotation Yrotation Zrotation
					JOINT LeftToeBase
					{
						OFFSET 3.145500 -8.631000 16.059900
						CHANNELS 3 Xrotation Yrotation Zrotation
						End Site
						{
							OFFSET 0.000000 18.501587 0.000000
						}
					}
				}
			}
			JOINT Left_ShortSleeve
			{
				OFFSET 0.265923 -10.480953 1.153800
				CHANNELS 3 Xrotation Yrotation Zrotation
				End Site
				{
					OFFSET 1.725763 19.823879 0.000000
				}
			}
		}
		JOINT RightUpLeg
		{
			OFFSET -6.797100 -2.508499 -1.318700
			CHANNELS 3 Xrotation Yrotation Zrotation
			JOINT RightLeg
			{
				OFFSET -0.082453 -29.241932 0.688000
				CHANNELS 3 Xrotation Yrotation Zrotation
				JOINT RightFoot
				{
					OFFSET 0.082453 -29.568058 -0.264600
					CHANNELS 3 Xrotation Yrotation Zrotation
					JOINT RightToeBase
					{
						OFFSET -3.115300 -8.682800 16.113400
						CHANNELS 3 Xrotation Yrotation Zrotation
						End Site
						{
							OFFSET 0.000000 18.567114 0.000000
						}
					}
				}
			}
			JOINT Right_ShortSleeve
			{
				OFFSET -0.265923 -10.480953 1.153800
				CHANNELS 3 Xrotation Yrotation Zrotation
				End Site
				{
					OFFSET -1.725766 19.823910 0.000000
				}
			}
		}
	}
	JOINT Spine
	{
		OFFSET 0.000000 13.368103 0.470500
		CHANNELS 3 Xrotation Yrotation Zrotation
		JOINT Spine1
		{
			OFFSET 0.147000 13.837402 0.538800
			CHANNELS 3 Xrotation Yrotation Zrotation
			JOINT Spine2
			{
				OFFSET 0.168000 16.242897 -1.435500
				CHANNELS 3 Xrotation Yrotation Zrotation
				JOINT Neck
				{
					OFFSET 0.217200 18.631500 -1.679100
					CHANNELS 3 Xrotation Yrotation Zrotation
					JOINT Head
					{
						OFFSET 0.000000 6.599396 1.385900
						CHANNELS 3 Xrotation Yrotation Zrotation
						JOINT Hat
						{
							OFFSET -0.532200 27.220596 -10.096100
							CHANNELS 3 Xrotation Yrotation Zrotation
							End Site
							{
								OFFSET 0.000000 22.029861 0.000000
							}
						}
						JOINT HairD
						{
							OFFSET -10.777400 17.437393 -1.325900
							CHANNELS 3 Xrotation Yrotation Zrotation
							JOINT HairD1
							{
								OFFSET -3.290299 -11.051193 1.062200
								CHANNELS 3 Xrotation Yrotation Zrotation
								End Site
								{
									OFFSET 0.000000 11.579437 0.000000
								}
							}
						}
						JOINT HairB
						{
							OFFSET -10.777400 17.437393 1.467900
							CHANNELS 3 Xrotation Yrotation Zrotation
							JOINT HairB1
							{
								OFFSET -1.561200 -12.956299 3.590200
								CHANNELS 3 Xrotation Yrotation Zrotation
								End Site
								{
									OFFSET 0.000000 13.534866 0.000000
								}
							}
						}
						JOINT HairA
						{
							OFFSET 9.713100 17.437393 1.467900
							CHANNELS 3 Xrotation Yrotation Zrotation
							JOINT HairA1
							{
								OFFSET 1.561200 -12.956299 3.590200
								CHANNELS 3 Xrotation Yrotation Zrotation
								End Site
								{
									OFFSET 0.000000 13.534866 0.000000
								}
							}
						}
						JOINT HairC
						{
							OFFSET 9.713100 17.437393 -1.325900
							CHANNELS 3 Xrotation Yrotation Zrotation
							JOINT HairC1
							{
								OFFSET 3.290300 -11.051193 1.062200
								CHANNELS 3 Xrotation Yrotation Zrotation
								End Site
								{
									OFFSET 0.000000 11.579437 0.000000
								}
							}
						}
					}
				}
				JOINT LeftShoulder
				{
					OFFSET 5.101800 15.108002 -2.763700
					CHANNELS 3 Xrotation Yrotation Zrotation
					JOINT LeftArm
					{
						OFFSET 9.825497 2.506317 -1.597400
						CHANNELS 3 Xrotation Yrotation Zrotation
						JOINT LeftForeArm
						{
							OFFSET 21.966244 0.000000 0.000000
							CHANNELS 3 Xrotation Yrotation Zrotation
							JOINT LeftHand
							{
								OFFSET 33.879036 0.000000 0.000000
								CHANNELS 3 Xrotation Yrotation Zrotation
								JOINT LeftHandThumb1
								{
									OFFSET 6.715286 -2.359680 3.363841
									CHANNELS 3 Xrotation Yrotation Zrotation
									JOINT LeftHandThumb2
									{
										OFFSET 2.507072 -1.447464 1.447461
										CHANNELS 3 Xrotation Yrotation Zrotation
										JOINT LeftHandThumb3
										{
											OFFSET 2.898338 -1.673355 1.673357
											CHANNELS 3 Xrotation Yrotation Zrotation
											End Site
											{
												OFFSET -0.295959 3.727692 -0.131651
											}
										}
									}
								}
								JOINT LeftHandIndex1
								{
									OFFSET 14.190811 -0.254547 3.840278
									CHANNELS 3 Xrotation Yrotation Zrotation
									JOINT LeftHandIndex2
									{
										OFFSET 3.551727 0.000000 -0.000000
										CHANNELS 3 Xrotation Yrotation Zrotation
										JOINT LeftHandIndex3
										{
											OFFSET 2.894196 0.000000 0.000000
											CHANNELS 3 Xrotation Yrotation Zrotation
											End Site
											{
												OFFSET -1.000603 2.690872 0.366626
											}
										}
									}
								}
								JOINT LeftHandMiddle1
								{
									OFFSET 13.776489 0.000000 0.000000
									CHANNELS 3 Xrotation Yrotation Zrotation
									JOINT LeftHandMiddle2
									{
										OFFSET 3.438232 0.000000 0.000000
										CHANNELS 3 Xrotation Yrotation Zrotation
										JOINT LeftHandMiddle3
										{
											OFFSET 3.691551 0.000000 0.000000
											CHANNELS 3 Xrotation Yrotation Zrotation
											End Site
											{
												OFFSET -1.082298 3.499527 0.457670
											}
										}
									}
								}
								JOINT LeftHandRing1
								{
									OFFSET 13.966164 -0.268127 -3.067488
									CHANNELS 3 Xrotation Yrotation Zrotation
									JOINT LeftHandRing2
									{
										OFFSET 3.162567 0.000000 0.000000
										CHANNELS 3 Xrotation Yrotation Zrotation
										JOINT LeftHandRing3
										{
											OFFSET 3.324348 0.000000 0.000000
											CHANNELS 3 Xrotation Yrotation Zrotation
											End Site
											{
												OFFSET -0.861900 3.184998 0.405154
											}
										}
									}
								}
								JOINT LeftHandPinky1
								{
									OFFSET 13.131393 -0.168503 -5.746925
									CHANNELS 3 Xrotation Yrotation Zrotation
									JOINT LeftHandPinky2
									{
										OFFSET 2.849182 0.000000 0.000000
										CHANNELS 3 Xrotation Yrotation Zrotation
										JOINT LeftHandPinky3
										{
											OFFSET 2.805038 0.000000 0.000000
											CHANNELS 3 Xrotation Yrotation Zrotation
											End Site
											{
												OFFSET -0.882500 2.642609 0.325652
											}
										}
									}
								}
							}
							JOINT Left_Sleeve
							{
								OFFSET 6.592125 -0.646545 0.805568
								CHANNELS 3 Xrotation Yrotation Zrotation
								End Site
								{
									OFFSET -0.000179 20.275787 -0.000000
								}
							}
						}
					}
				}
				JOINT RightShoulder
				{
					OFFSET -5.731700 15.108002 -2.763700
					CHANNELS 3 Xrotation Yrotation Zrotation
					JOINT RightArm
					{
						OFFSET -9.825497 2.506317 -1.597400
						CHANNELS 3 Xrotation Yrotation Zrotation
						JOINT RightForeArm
						{
							OFFSET -21.966242 0.000000 0.000000
							CHANNELS 3 Xrotation Yrotation Zrotation
							JOINT RightHand
							{
								OFFSET -33.879032 0.000000 0.000000
								CHANNELS 3 Xrotation Yrotation Zrotation
								JOINT RightHandThumb1
								{
									OFFSET -6.715286 -2.359680 3.363841
									CHANNELS 3 Xrotation Yrotation Zrotation
									JOINT RightHandThumb2
									{
										OFFSET -2.507072 -1.447464 1.447461
										CHANNELS 3 Xrotation Yrotation Zrotation
										JOINT RightHandThumb3
										{
											OFFSET -2.898338 -1.673355 1.673357
											CHANNELS 3 Xrotation Yrotation Zrotation
											End Site
											{
												OFFSET 0.295959 3.727692 -0.131651
											}
										}
									}
								}
								JOINT RightHandIndex1
								{
									OFFSET -14.190811 -0.254547 3.840278
									CHANNELS 3 Xrotation Yrotation Zrotation
									JOINT RightHandIndex2
									{
										OFFSET -3.551727 0.000000 -0.000000
										CHANNELS 3 Xrotation Yrotation Zrotation
										JOINT RightHandIndex3
										{
											OFFSET -2.894196 0.000000 0.000000
											CHANNELS 3 Xrotation Yrotation Zrotation
											End Site
											{
												OFFSET 1.000603 2.690872 0.366626
											}
										}
									}
								}
								JOINT RightHandMiddle1
								{
									OFFSET -13.776489 0.000000 0.000000
									CHANNELS 3 Xrotation Yrotation Zrotation
									JOINT RightHandMiddle2
									{
										OFFSET -3.438232 0.000000 0.000000
										CHANNELS 3 Xrotation Yrotation Zrotation
										JOINT RightHandMiddle3
										{
											OFFSET -3.691551 0.000000 0.000000
											CHANNELS 3 Xrotation Yrotation Zrotation
											End Site
											{
												OFFSET 1.082298 3.499527 0.457670
											}
										}
									}
								}
								JOINT RightHandRing1
								{
									OFFSET -13.966164 -0.268127 -3.067488
									CHANNELS 3 Xrotation Yrotation Zrotation
									JOINT RightHandRing2
									{
										OFFSET -3.162567 0.000000 0.000000
										CHANNELS 3 Xrotation Yrotation Zrotation
										JOINT RightHandRing3
										{
											OFFSET -3.324348 0.000000 0.000000
											CHANNELS 3 Xrotation Yrotation Zrotation
											End Site
											{
												OFFSET 0.861900 3.184998 0.405154
											}
										}
									}
								}
								JOINT RightHandPinky1
								{
									OFFSET -13.131393 -0.168503 -5.746925
									CHANNELS 3 Xrotation Yrotation Zrotation
									JOINT RightHandPinky2
									{
										OFFSET -2.849182 0.000000 0.000000
										CHANNELS 3 Xrotation Yrotation Zrotation
										JOINT RightHandPinky3
										{
											OFFSET -2.805038 0.000000 0.000000
											CHANNELS 3 Xrotation Yrotation Zrotation
											End Site
											{
												OFFSET 0.882500 2.642609 0.325652
											}
										}
									}
								}
							}
							JOINT Right_Sleeve
							{
								OFFSET -6.592125 -0.646545 0.805568
								CHANNELS 3 Xrotation Yrotation Zrotation
								End Site
								{
									OFFSET 0.000179 20.275787 -0.000000
								}
							}
						}
					}
				}
				JOINT Bind_Right_JacketString
				{
					OFFSET -3.534800 11.969597 7.200700
					CHANNELS 3 Xrotation Yrotation Zrotation
					JOINT Bind_Right_JacketString1
					{
						OFFSET -0.319900 -6.102600 2.794100
						CHANNELS 3 Xrotation Yrotation Zrotation
						End Site
						{
							OFFSET 0.000000 6.719452 0.000000
						}
					}
				}
				JOINT Bind_Left_JacketString
				{
					OFFSET 2.904800 11.969597 7.200700
					CHANNELS 3 Xrotation Yrotation Zrotation
					JOINT Bind_Left_JacketString1
					{
						OFFSET 0.364800 -5.904503 3.186800
						CHANNELS 3 Xrotation Yrotation Zrotation
						End Site
						{
							OFFSET 0.000000 6.719513 0.000000
						}
					}
				}
				JOINT HairE
				{
					OFFSET 5.915200 17.612701 -11.592200
					CHANNELS 3 Xrotation Yrotation Zrotation
					JOINT HairE1
					{
						OFFSET 0.289200 -7.171898 -1.284500
						CHANNELS 3 Xrotation Yrotation Zrotation
						End Site
						{
							OFFSET 0.000000 7.291756 0.000000
						}
					}
				}
				JOINT HairF
				{
					OFFSET -0.864800 17.612701 -11.592200
					CHANNELS 3 Xrotation Yrotation Zrotation
					JOINT HairF1
					{
						OFFSET 0.000000 -14.087097 -2.127501
						CHANNELS 3 Xrotation Yrotation Zrotation
						End Site
						{
							OFFSET 0.000000 14.246841 0.000000
						}
					}
				}
				JOINT HairG
				{
					OFFSET -8.087700 17.612701 -11.592200
					CHANNELS 3 Xrotation Yrotation Zrotation
					JOINT HairG1
					{
						OFFSET -0.293600 -6.081398 -0.910100
						CHANNELS 3 Xrotation Yrotation Zrotation
						End Site
						{
							OFFSET 0.000000 6.156120 0.000000
						}
					}
				}
			}
		}
	}
	JOINT Pouch
	{
		OFFSET 0.000000 4.394501 10.847300
		CHANNELS 3 Xrotation Yrotation Zrotation
		End Site
		{
			OFFSET 0.000000 21.880577 0.000000
		}
	}
	JOINT Bag
	{
		OFFSET -13.229000 4.813004 -0.593300
		CHANNELS 3 Xrotation Yrotation Zrotation
		End Site
		{
			OFFSET 0.000000 21.880577 0.000000
		}
	}
	JOINT OccupyGuyFacialAnim_Joint
	{
		OFFSET 1.000000 -70.206398 -1.655000
		CHANNELS 3 Xrotation Yrotation Zrotation
		End Site
		{
			OFFSET 0.000000 21.880577 0.000000
		}
	}
}
MOTION
Frames: 4
Frame Time: 0.033333
0.312092 55.592846 0.719704 -27.472527 6.260627 -10.155450 0.000002 -0.000000 -0.000000 -28.566576 5.245403 -9.265631 38.863134 -1.248764 -1.156753 25.463218 4.406336 21.622473 -0.000000 -0.000000 -0.000000 -0.000000 0.000001 -0.000003 -8.106444 -13.957997 -18.835252 98.329172 3.290690 1.400114 -8.796784 -0.889255 23.336081 -0.000002 -0.000002 0.000002 -0.000001 0.000001 -0.000002 14.111311 10.285497 -3.218750 1.361569 2.848195 0.144728 1.380799 2.822176 0.114129 3.479110 -1.932756 0.218963 8.764235 -20.296756 11.241918 -0.000000 -0.000000 0.000000 -0.000000 -0.000000 0.000000 -0.000000 -0.000000 0.000000 -0.000000 -0.000000 0.000000 -0.000000 0.000000 0.000001 -0.000000 -0.000000 0.000000 -0.000000 0.000000 0.000001 -0.000000 -0.000000 0.000000 -0.000000 -0.000000 0.000000 -1.714896 9.899172 0.739518 25.814891 24.343610 -19.738827 0.000002 -41.661760 0.000000 13.204665 -15.596042 -11.762208 4.972948 -0.919237 4.455774 7.416819 13.559457 3.778489 -0.000002 0.000001 -0.000003 0.332623 -2.971045 -1.456183 0.830583 3.008805 -30.858265 0.000001 0.000001 0.000005 -0.686697 0.199385 -14.655424 0.595555 2.575499 -26.036343 0.000000 0.000001 -0.000001 0.933457 5.741936 -20.414011 0.491130 2.349926 -23.606373 -0.000000 0.000000 -0.000003 2.244605 16.205466 -22.664084 0.579240 2.541866 -25.670856 0.000001 -0.000000 0.000001 0.000000 -0.000001 0.000002 0.821064 3.691072 -4.575241 29.787237 -12.015536 12.825470 0.000000 44.662255 -0.000003 26.446663 4.984175 32.606551 3.998980 2.832305 -3.864434 7.802595 -15.416777 -4.481858 -0.000000 0.000000 0.000001 0.387336 3.131511 0.644093 0.662457 -2.395995 30.906657 -0.000001 -0.000003 -0.000000 -0.709928 0.247540 13.910239 0.475079 -2.051027 26.079675 -0.000001 -0.000001 -0.000001 0.807589 -5.199879 19.769375 0.391800 -1.871430 23.646677 0.000000 0.000003 0.000000 1.997385 -15.634342 22.197616 0.462054 -2.024255 25.713757 -0.000001 0.000001 0.000001 0.000000 -0.000001 0.000000 -0.000000 0.000002 0.000001 0.000000 0.000000 -0.000000 -0.000000 0.000002 -0.000001 -0.000000 0.000002 -0.000001 -0.000000 0.000002 0.000001 0.000000 0.000000 0.000000 -0.000000 0.000002 -0.000001 -0.000000 0.000002 -0.000001 -0.000000 0.000002 0.000001 0.000000 0.000000 0.000000 0.000002 -0.000000 -0.000000 0.000002 -0.000000 -0.000000 0.000002 -0.000000 -0.000000 
-0.578607 57.330219 0.050175 -25.033323 6.585482 -8.302144 0.000001 0.000000 0.000000 -25.337608 4.558252 -10.164201 28.878795 -3.924598 -1.189238 29.892279 4.531142 19.320636 -0.000000 0.000000 -0.000000 -0.000003 0.000001 -0.000001 -7.385354 -16.693858 -15.973446 93.186620 -2.949735 1.292972 -17.172474 -2.130559 22.315355 -0.000001 -0.000001 -0.000001 -0.000001 0.000001 -0.000002 15.555290 8.490547 -2.761726 1.733671 2.341573 0.237001 1.751694 2.312430 0.222155 3.071387 -1.723649 0.182074 6.550497 -18.602941 9.432264 0.000000 -0.000000 0.000000 0.000000 -0.000000 0.000000 0.000000 -0.000000 0.000000 0.000000 -0.000000 0.000000 -0.000000 -0.000001 0.000000 0.000000 -0.000000 0.000000 -0.000000 -0.000001 0.000000 0.000000 -0.000000 0.000000 0.000000 -0.000000 0.000000 -3.493588 10.064496 -6.204338 26.018807 27.679453 -22.047214 -0.000018 -45.684769 0.000004 15.631013 -6.096781 -7.942841 5.486142 0.012711 6.754198 -4.355891 14.747017 5.724891 0.000000 0.000001 -0.000001 2.148691 -3.624570 -12.866798 0.835133 3.016383 -30.944790 0.000001 0.000001 -0.000000 -0.617083 1.832266 -22.234798 1.093520 3.409905 -35.552152 0.000000 0.000001 -0.000001 0.793463 5.190791 -29.788531 1.078751 3.389188 -35.303083 -0.000001 -0.000000 -0.000000 2.080656 16.450410 -22.865375 0.579245 2.541869 -25.670861 -0.000000 0.000000 0.000001 -0.000000 -0.000002 -0.000001 2.705257 2.563038 1.999444 31.224425 -13.145791 14.386801 0.000002 49.289531 0.000003 22.398127 0.282556 22.690066 -8.551094 -2.790665 1.407848 7.168937 -11.047302 -6.265333 0.000001 -0.000000 0.000004 1.447931 3.936754 0.078199 0.444773 -1.987933 25.219589 -0.000001 0.000001 -0.000001 -0.477568 -0.047429 11.189020 0.373607 -1.829341 23.083336 0.000002 0.000002 0.000001 0.637842 -4.899114 17.022872 0.277752 -1.585773 19.867011 -0.000000 0.000003 0.000000 1.692730 -14.201470 20.133468 0.264076 -1.547429 19.366865 -0.000000 -0.000000 0.000000 0.000000 -0.000000 -0.000000 -0.000000 -0.000000 -0.000001 -0.000000 -0.000000 -0.000001 -0.000000 -0.000000 -0.000001 -0.000000 -0.000000 -0.000001 -0.000000 -0.000000 -0.000001 -0.000000 -0.000000 -0.000001 -0.000000 -0.000000 -0.000001 -0.000000 -0.000000 -0.000001 -0.000000 -0.000000 -0.000001 -0.000000 -0.000000 -0.000001 0.000001 0.000000 0.000000 0.000001 0.000000 0.000000 0.000001 0.000000 0.000000 
-1.583019 59.113014 -0.507492 -22.571234 7.064646 -6.495918 0.000002 0.000000 -0.000000 -23.066005 2.727471 -9.835265 23.053521 -8.526481 -1.461328 29.683818 2.641552 14.979074 -0.000000 0.000000 -0.000000 -0.000002 -0.000001 0.000001 -5.900381 -19.089967 -12.848808 86.913857 -7.762271 1.326947 -22.395497 -2.698346 20.692405 -0.000001 -0.000001 0.000000 -0.000000 0.000001 -0.000000 16.877922 6.753604 -2.272296 2.105961 1.844543 0.347022 2.121711 1.811351 0.347493 2.710360 -1.526015 0.167719 4.587815 -16.929652 7.634363 0.000000 0.000000 0.000000 0.000000 0.000000 0.000000 0.000000 0.000000 0.000000 0.000000 0.000000 0.000000 0.000000 0.000000 0.000000 0.000000 0.000000 0.000000 0.000000 0.000000 0.000000 0.000000 0.000000 0.000000 0.000000 0.000000 0.000000 -4.925051 9.994794 -12.364306 24.609921 25.902043 -28.064028 0.000008 -46.360787 0.000003 17.463209 3.572227 -4.400953 5.315402 0.799693 7.875648 -4.439322 14.108347 6.129660 0.000000 -0.000000 -0.000005 3.059498 -4.787908 -24.323053 0.808075 2.970845 -30.426632 0.000001 0.000001 -0.000000 -0.174529 3.485659 -29.590572 1.686689 4.113732 -44.574412 -0.000000 0.000001 -0.000003 0.310354 4.728823 -38.799118 1.831641 4.255466 -46.560611 0.000000 -0.000001 -0.000002 2.090603 16.727490 -23.516428 0.730513 2.834826 -28.895047 -0.000001 -0.000001 0.000003 0.000001 -0.000000 -0.000001 4.934426 1.641531 9.532787 31.482948 -10.698924 17.361427 -0.000029 53.267498 0.000022 16.162374 -3.910703 11.433758 -21.246915 -10.356735 5.120429 7.750242 -6.438655 -8.081212 0.000003 -0.000001 0.000003 2.614693 4.684013 -0.859297 0.240060 -1.477412 18.457767 0.000001 -0.000002 0.000002 -0.246410 -0.400908 7.743549 0.257720 -1.529281 19.130728 0.000001 0.000000 -0.000001 0.452110 -4.521942 13.370256 0.160595 -1.213755 15.075033 -0.000003 0.000000 -0.000002 1.460438 -12.483071 17.085515 0.097434 -0.948679 11.728323 -0.000002 -0.000002 -0.000003 0.000000 -0.000002 0.000001 -0.000000 -0.000001 -0.000000 -0.000000 -0.000000 -0.000001 -0.000000 -0.000001 -0.000001 -0.000000 -0.000001 -0.000001 -0.000000 -0.000001 -0.000000 -0.000000 -0.000000 -0.000001 -0.000000 -0.000001 -0.000001 -0.000000 -0.000001 -0.000001 -0.000000 -0.000001 -0.000000 -0.000000 -0.000000 -0.000001 0.000002 0.000000 -0.000000 0.000002 0.000000 -0.000000 0.000002 0.000000 -0.000000 
-2.551549 60.736534 -1.048502 -20.135085 7.583399 -4.693207 0.000000 0.000001 -0.000000 -26.864891 1.072768 -7.627026 29.098211 -10.085375 -2.007334 22.439854 -2.102562 4.479957 0.000000 0.000001 -0.000000 -0.000001 0.000000 0.000000 -7.275629 -19.365410 -10.386138 82.727190 -10.247606 1.213329 -23.642869 -0.600453 17.214467 0.000000 -0.000003 0.000000 0.000001 -0.000000 0.000000 18.302405 5.004836 -1.800376 2.480200 1.342729 0.448139 2.493171 1.305940 0.464174 2.326462 -1.322633 0.142118 2.654795 -15.202891 5.901000 -0.000000 -0.000000 -0.000000 -0.000000 -0.000000 -0.000000 -0.000000 -0.000000 -0.000000 -0.000000 -0.000000 -0.000000 -0.000000 0.000001 -0.000000 -0.000000 -0.000000 -0.000000 -0.000000 0.000001 -0.000000 -0.000000 -0.000000 -0.000000 -0.000000 -0.000000 -0.000000 -6.216777 8.554672 -17.165548 19.677814 18.762540 -34.818252 -0.000002 -42.429149 -0.000007 18.777814 10.163580 -1.443783 2.636105 2.374593 8.011061 -4.525210 13.557753 6.722318 -0.000001 0.000001 -0.000002 3.128385 -5.780218 -30.153783 0.695112 2.769792 -28.171090 0.000000 0.000001 -0.000002 0.254672 4.369897 -32.572260 1.951032 4.365100 -48.149022 0.000000 0.000001 -0.000001 -0.086474 4.504704 -42.990631 2.211353 4.584304 -51.484771 0.000001 0.000000 -0.000003 2.074645 17.109404 -24.614450 1.111134 3.434393 -35.847336 0.000002 -0.000003 0.000001 0.000002 -0.000000 -0.000003 7.427779 1.094895 16.935831 27.323330 -3.876092 21.380755 -0.000007 53.676312 0.000011 9.738429 -5.117114 0.933066 -34.229015 -18.480113 6.701876 9.411517 -2.896891 -10.383757 0.000001 -0.000001 -0.000002 3.769046 5.273257 -1.405462 0.102332 -0.971985 12.020845 -0.000001 -0.000002 0.000003 -0.086876 -0.809120 4.713103 0.170278 -1.249091 15.525054 0.000000 0.000003 -0.000002 0.306717 -4.128884 10.210076 0.081518 -0.868508 10.724743 0.000003 0.000001 0.000004 1.355473 -10.684138 14.573824 0.016253 -0.389150 4.782592 -0.000001 0.000001 0.000002 0.000001 -0.000001 -0.000001 -0.000000 -0.000000 -0.000001 0.000000 -0.000000 -0.000001 -0.000000 -0.000000 -0.000000 -0.000000 -0.000000 -0.000000 -0.000000 -0.000000 -0.000001 0.000000 -0.000000 -0.000001 -0.000000 -0.000000 -0.000000 -0.000000 -0.000000 -0.000000 -0.000000 -0.000000 -0.000001 0.000000 -0.000000 -0.000001 0.000000 0.000001 -0.000000 0.000000 0.000001 -0.000000 0.000000 0.000001 -0.000000 
